<svg id="overlay_btn_bg" xmlns="http://www.w3.org/2000/svg" width="74" height="14" viewBox="0 0 74 14">
  <metadata><?xpacket begin="﻿" id="W5M0MpCehiHzreSzNTczkc9d"?>
<x:xmpmeta xmlns:x="adobe:ns:meta/" x:xmptk="Adobe XMP Core 5.6-c138 79.159824, 2016/09/14-01:09:01        ">
   <rdf:RDF xmlns:rdf="http://www.w3.org/1999/02/22-rdf-syntax-ns#">
      <rdf:Description rdf:about=""/>
   </rdf:RDF>
</x:xmpmeta>
                                                                                                    
                                                                                                    
                                                                                                    
                                                                                                    
                                                                                                    
                                                                                                    
                                                                                                    
                                                                                                    
                                                                                                    
                                                                                                    
                                                                                                    
                                                                                                    
                                                                                                    
                                                                                                    
                                                                                                    
                                                                                                    
                                                                                                    
                                                                                                    
                                                                                                    
                                                                                                    
                           
<?xpacket end="w"?></metadata>
<defs>
    <style>
      .cls-1 {
        fill: #545454;
        fill-rule: evenodd;
      }
    </style>
  </defs>
  <path id="矩形_1_拷贝" data-name="矩形 1 拷贝" class="cls-1" d="M14.009,13.308l-0.7.7L7,7.7,0.692,14.009l-0.7-.7L6.3,7-0.008.692l0.7-.7L7,6.3,13.308-.008l0.7,0.7L7.7,7Z"/>
  <path id="矩形_5_拷贝" data-name="矩形 5 拷贝" class="cls-1" d="M30,14V0h8V1H31V6h7v7h5V6h1v8H30ZM43,1.716l-3.29,3.29L38.994,4.29,42.284,1H39V0h5V5H43V1.716Z"/>
  <path id="矩形_5_拷贝_2" data-name="矩形 5 拷贝 2" class="cls-1" d="M70.716,4H74V5H69V0h1V3.284l3.29-3.29L74.006,0.71ZM73,6h1v8H60V0h8V1H61V6h7v7h5V6Z"/>
</svg>
